<svg role="img" viewBox="0 0 24 24" xmlns="http://www.w3.org/2000/svg">
  <title>LinkedIn</title>
  <path fill="#ffffff" d="M20.447 20.452H17.21v-5.569
  c0-1.328-.027-3.037-1.852-3.037
  -1.853 0-2.136 1.445-2.136 2.939
  v5.667H9.078V9h3.112v1.561h.044
  c.434-.824 1.494-1.693 3.073-1.693
  3.285 0 3.89 2.164 3.89 4.977
  v6.607zM5.337 7.433
  c-1.004 0-1.816-.813-1.816-1.816
  0-1.004.812-1.816 1.816-1.816
  1.003 0 1.815.812 1.815 1.816
  0 1.003-.812 1.816-1.815 1.816z
  M6.956 20.452H3.719V9h3.237v11.452z
  M22.225 0H1.771
  C.792 0 0 .774 0 1.727v20.545
  C0 23.227.792 24 1.771 24h20.451
  C23.2 24 24 23.227 24 22.273V1.727
  C24 .774 23.2 0 22.225 0z"/>
</svg>
